<svg width="3077" height="717" viewBox="0 0 3077 717" fill="none" xmlns="http://www.w3.org/2000/svg">
<g clip-path="url(#clip0_516_3)">
<path d="M257.1 136.892L253.965 142.942V279.087L241.423 276.061L137.957 215.553H128.551L122.28 221.603L116.009 227.654L112.874 239.756L116.009 248.832L241.423 321.442H260.235L272.777 315.392L285.318 306.315L291.589 297.239L297.859 285.137V179.248V158.07V148.993V139.917L291.589 133.866H285.318H275.912H266.506L257.1 136.892Z" fill="#FD510C"/>
<path d="M475.708 206.448L468.714 206.912L347.146 276.011L343.483 264.048L344.999 147.313L340.226 139.493L331.64 137.35L323.054 135.208L310.657 138.743L304.144 145.957L302.96 287.081L312.508 302.721L324.276 310.078L338.746 315.898L350.033 316.505L364.022 315.577L458.574 261.834L477.485 251.085L485.589 246.478L493.694 241.872L495.914 233.587L492.732 228.374L487.958 220.553L483.184 212.733L475.708 206.448Z" fill="#FBB601"/>
<path d="M129.98 509.505L136.974 509.041L258.542 439.943L262.206 451.905L260.689 568.64L265.463 576.46L274.048 578.603L282.634 580.745L295.031 577.21L301.545 569.997L302.728 428.873L293.18 413.232L281.412 405.876L266.942 400.055L255.655 399.448L241.667 400.376L147.114 454.12L128.203 464.868L120.099 469.475L111.994 474.081L109.774 482.366L112.956 487.58L117.73 495.4L122.504 503.22L129.98 509.505Z" fill="#636365"/>
<path d="M357.345 580.34L360.315 574.212L356.622 438.115L369.241 440.823L474.314 498.697L483.716 498.459L489.821 492.252L495.925 486.045L498.731 473.868L495.351 464.874L368.01 395.457L349.204 395.932L336.831 402.298L324.541 411.688L318.518 420.919L312.578 433.175L315.451 539.028L316.025 560.199L316.271 569.272L316.517 578.345L322.95 584.236L329.219 584.077L338.622 583.84L348.024 583.602L357.345 580.34Z" fill="#636365"/>
<path d="M524.098 426.106L520.286 420.428L398.719 351.329L407.785 342.438L514.329 287.124L519.103 279.303L516.882 271.019L514.662 262.734L505.447 253.985L495.751 251.986L367.263 319.405L357.715 335.046L356.753 348.544L358.492 363.578L363.414 373.398L371.037 384.753L465.59 438.497L484.501 449.245L492.605 453.852L500.71 458.458L509.295 456.316L512.478 451.102L517.252 443.282L522.026 435.461L524.098 426.106Z" fill="#FBB601"/>
<path d="M81.1807 289.517L84.7321 295.35L203.061 369.5L193.601 378.001L84.6583 428.778L79.5354 436.39L81.3792 444.76L83.2229 453.13L92.0334 462.259L101.63 464.665L233.044 402.718L243.289 387.494L244.861 374.049L243.803 358.956L239.33 348.938L232.227 337.272L140.193 279.601L121.787 268.066L113.898 263.123L106.009 258.18L97.3351 259.959L93.9199 265.034L88.797 272.646L83.6741 280.258L81.1807 289.517Z" fill="#FD510C"/>
<path d="M629.986 315.125L670.626 172.25H690.314L678.923 227.797L635.189 377H615.642L629.986 315.125ZM587.939 172.25L620.282 312.312L629.986 377H610.579L560.939 172.25H587.939ZM742.907 312.172L774.548 172.25H801.689L752.189 377H732.782L742.907 312.172ZM693.267 172.25L732.782 315.125L747.126 377H727.579L685.392 227.797L673.861 172.25H693.267ZM816.454 302.609V299.375C816.454 288.406 818.048 278.234 821.236 268.859C824.423 259.391 829.017 251.188 835.017 244.25C841.017 237.219 848.282 231.781 856.814 227.938C865.345 224 874.907 222.031 885.501 222.031C896.189 222.031 905.798 224 914.329 227.938C922.954 231.781 930.267 237.219 936.267 244.25C942.361 251.188 947.001 259.391 950.189 268.859C953.376 278.234 954.97 288.406 954.97 299.375V302.609C954.97 313.578 953.376 323.75 950.189 333.125C947.001 342.5 942.361 350.703 936.267 357.734C930.267 364.672 923.001 370.109 914.47 374.047C906.032 377.891 896.47 379.812 885.782 379.812C875.095 379.812 865.486 377.891 856.954 374.047C848.423 370.109 841.111 364.672 835.017 357.734C829.017 350.703 824.423 342.5 821.236 333.125C818.048 323.75 816.454 313.578 816.454 302.609ZM842.47 299.375V302.609C842.47 310.203 843.361 317.375 845.142 324.125C846.923 330.781 849.595 336.688 853.157 341.844C856.814 347 861.361 351.078 866.798 354.078C872.236 356.984 878.564 358.438 885.782 358.438C892.907 358.438 899.142 356.984 904.486 354.078C909.923 351.078 914.423 347 917.986 341.844C921.548 336.688 924.22 330.781 926.001 324.125C927.876 317.375 928.814 310.203 928.814 302.609V299.375C928.814 291.875 927.876 284.797 926.001 278.141C924.22 271.391 921.501 265.438 917.845 260.281C914.282 255.031 909.782 250.906 904.345 247.906C899.001 244.906 892.72 243.406 885.501 243.406C878.376 243.406 872.095 244.906 866.657 247.906C861.314 250.906 856.814 255.031 853.157 260.281C849.595 265.438 846.923 271.391 845.142 278.141C843.361 284.797 842.47 291.875 842.47 299.375ZM1013.61 248.75V377H987.595V224.844H1012.91L1013.61 248.75ZM1061.14 224L1061 248.188C1058.84 247.719 1056.78 247.438 1054.81 247.344C1052.94 247.156 1050.78 247.062 1048.34 247.062C1042.34 247.062 1037.05 248 1032.45 249.875C1027.86 251.75 1023.97 254.375 1020.78 257.75C1017.59 261.125 1015.06 265.156 1013.19 269.844C1011.41 274.438 1010.24 279.5 1009.67 285.031L1002.36 289.25C1002.36 280.062 1003.25 271.438 1005.03 263.375C1006.91 255.312 1009.77 248.188 1013.61 242C1017.45 235.719 1022.33 230.844 1028.24 227.375C1034.24 223.812 1041.36 222.031 1049.61 222.031C1051.49 222.031 1053.64 222.266 1056.08 222.734C1058.52 223.109 1060.2 223.531 1061.14 224ZM1111.34 161V377H1085.19V161H1111.34ZM1204.3 224.844L1137.92 295.859L1100.8 334.391L1098.69 306.688L1125.27 274.906L1172.52 224.844H1204.3ZM1180.53 377L1126.25 304.438L1139.75 281.234L1211.19 377H1180.53ZM1262.24 172.25V377H1235.09V172.25H1262.24ZM1348.02 264.359V286.578H1256.33V264.359H1348.02ZM1361.94 172.25V194.469H1256.33V172.25H1361.94ZM1380.36 302.609V299.375C1380.36 288.406 1381.95 278.234 1385.14 268.859C1388.33 259.391 1392.92 251.188 1398.92 244.25C1404.92 237.219 1412.19 231.781 1420.72 227.938C1429.25 224 1438.81 222.031 1449.41 222.031C1460.09 222.031 1469.7 224 1478.24 227.938C1486.86 231.781 1494.17 237.219 1500.17 244.25C1506.27 251.188 1510.91 259.391 1514.09 268.859C1517.28 278.234 1518.88 288.406 1518.88 299.375V302.609C1518.88 313.578 1517.28 323.75 1514.09 333.125C1510.91 342.5 1506.27 350.703 1500.17 357.734C1494.17 364.672 1486.91 370.109 1478.38 374.047C1469.94 377.891 1460.38 379.812 1449.69 379.812C1439 379.812 1429.39 377.891 1420.86 374.047C1412.33 370.109 1405.02 364.672 1398.92 357.734C1392.92 350.703 1388.33 342.5 1385.14 333.125C1381.95 323.75 1380.36 313.578 1380.36 302.609ZM1406.38 299.375V302.609C1406.38 310.203 1407.27 317.375 1409.05 324.125C1410.83 330.781 1413.5 336.688 1417.06 341.844C1420.72 347 1425.27 351.078 1430.7 354.078C1436.14 356.984 1442.47 358.438 1449.69 358.438C1456.81 358.438 1463.05 356.984 1468.39 354.078C1473.83 351.078 1478.33 347 1481.89 341.844C1485.45 336.688 1488.13 330.781 1489.91 324.125C1491.78 317.375 1492.72 310.203 1492.72 302.609V299.375C1492.72 291.875 1491.78 284.797 1489.91 278.141C1488.13 271.391 1485.41 265.438 1481.75 260.281C1478.19 255.031 1473.69 250.906 1468.25 247.906C1462.91 244.906 1456.63 243.406 1449.41 243.406C1442.28 243.406 1436 244.906 1430.56 247.906C1425.22 250.906 1420.72 255.031 1417.06 260.281C1413.5 265.438 1410.83 271.391 1409.05 278.141C1407.27 284.797 1406.38 291.875 1406.38 299.375ZM1577.52 248.75V377H1551.5V224.844H1576.81L1577.52 248.75ZM1625.05 224L1624.91 248.188C1622.75 247.719 1620.69 247.438 1618.72 247.344C1616.84 247.156 1614.69 247.062 1612.25 247.062C1606.25 247.062 1600.95 248 1596.36 249.875C1591.77 251.75 1587.88 254.375 1584.69 257.75C1581.5 261.125 1578.97 265.156 1577.09 269.844C1575.31 274.438 1574.14 279.5 1573.58 285.031L1566.27 289.25C1566.27 280.062 1567.16 271.438 1568.94 263.375C1570.81 255.312 1573.67 248.188 1577.52 242C1581.36 235.719 1586.24 230.844 1592.14 227.375C1598.14 223.812 1605.27 222.031 1613.52 222.031C1615.39 222.031 1617.55 222.266 1619.99 222.734C1622.42 223.109 1624.11 223.531 1625.05 224ZM1707.17 358.438C1713.36 358.438 1719.08 357.172 1724.33 354.641C1729.58 352.109 1733.89 348.641 1737.27 344.234C1740.64 339.734 1742.56 334.625 1743.03 328.906H1767.78C1767.31 337.906 1764.27 346.297 1758.64 354.078C1753.11 361.766 1745.84 368 1736.84 372.781C1727.84 377.469 1717.95 379.812 1707.17 379.812C1695.74 379.812 1685.75 377.797 1677.22 373.766C1668.78 369.734 1661.75 364.203 1656.13 357.172C1650.59 350.141 1646.42 342.078 1643.61 332.984C1640.89 323.797 1639.53 314.094 1639.53 303.875V297.969C1639.53 287.75 1640.89 278.094 1643.61 269C1646.42 259.812 1650.59 251.703 1656.13 244.672C1661.75 237.641 1668.78 232.109 1677.22 228.078C1685.75 224.047 1695.74 222.031 1707.17 222.031C1719.08 222.031 1729.49 224.469 1738.39 229.344C1747.3 234.125 1754.28 240.688 1759.34 249.031C1764.5 257.281 1767.31 266.656 1767.78 277.156H1743.03C1742.56 270.875 1740.78 265.203 1737.69 260.141C1734.69 255.078 1730.56 251.047 1725.31 248.047C1720.16 244.953 1714.11 243.406 1707.17 243.406C1699.2 243.406 1692.5 245 1687.06 248.188C1681.72 251.281 1677.45 255.5 1674.27 260.844C1671.17 266.094 1668.92 271.953 1667.52 278.422C1666.2 284.797 1665.55 291.312 1665.55 297.969V303.875C1665.55 310.531 1666.2 317.094 1667.52 323.562C1668.83 330.031 1671.03 335.891 1674.13 341.141C1677.31 346.391 1681.58 350.609 1686.92 353.797C1692.36 356.891 1699.11 358.438 1707.17 358.438ZM1860.17 379.812C1849.58 379.812 1839.97 378.031 1831.34 374.469C1822.81 370.812 1815.45 365.703 1809.27 359.141C1803.17 352.578 1798.49 344.797 1795.2 335.797C1791.92 326.797 1790.28 316.953 1790.28 306.266V300.359C1790.28 287.984 1792.11 276.969 1795.77 267.312C1799.42 257.562 1804.39 249.312 1810.67 242.562C1816.95 235.812 1824.08 230.703 1832.05 227.234C1840.02 223.766 1848.27 222.031 1856.8 222.031C1867.67 222.031 1877.05 223.906 1884.92 227.656C1892.89 231.406 1899.41 236.656 1904.47 243.406C1909.53 250.062 1913.28 257.938 1915.72 267.031C1918.16 276.031 1919.38 285.875 1919.38 296.562V308.234H1805.75V287H1893.36V285.031C1892.99 278.281 1891.58 271.719 1889.14 265.344C1886.8 258.969 1883.05 253.719 1877.89 249.594C1872.74 245.469 1865.7 243.406 1856.8 243.406C1850.89 243.406 1845.45 244.672 1840.49 247.203C1835.52 249.641 1831.25 253.297 1827.69 258.172C1824.13 263.047 1821.36 269 1819.39 276.031C1817.42 283.062 1816.44 291.172 1816.44 300.359V306.266C1816.44 313.484 1817.42 320.281 1819.39 326.656C1821.45 332.938 1824.41 338.469 1828.25 343.25C1832.19 348.031 1836.92 351.781 1842.45 354.5C1848.08 357.219 1854.45 358.578 1861.58 358.578C1870.77 358.578 1878.55 356.703 1884.92 352.953C1891.3 349.203 1896.88 344.188 1901.66 337.906L1917.41 350.422C1914.13 355.391 1909.95 360.125 1904.89 364.625C1899.83 369.125 1893.59 372.781 1886.19 375.594C1878.88 378.406 1870.2 379.812 1860.17 379.812ZM2100.92 190.391L2033.14 377H2005.44L2083.49 172.25H2101.34L2100.92 190.391ZM2157.74 377L2089.81 190.391L2089.39 172.25H2107.25L2185.58 377H2157.74ZM2154.22 301.203V323.422H2039.19V301.203H2154.22ZM2247.88 377H2221.86V208.812C2221.86 197.844 2223.83 188.609 2227.77 181.109C2231.8 173.516 2237.56 167.797 2245.06 163.953C2252.56 160.016 2261.47 158.047 2271.78 158.047C2274.78 158.047 2277.78 158.234 2280.78 158.609C2283.88 158.984 2286.88 159.547 2289.78 160.297L2288.38 181.531C2286.41 181.062 2284.16 180.734 2281.63 180.547C2279.19 180.359 2276.75 180.266 2274.31 180.266C2268.78 180.266 2264 181.391 2259.97 183.641C2256.03 185.797 2253.03 188.984 2250.97 193.203C2248.91 197.422 2247.88 202.625 2247.88 208.812V377ZM2280.22 224.844V244.812H2197.81V224.844H2280.22ZM2335.2 248.75V377H2309.19V224.844H2334.5L2335.2 248.75ZM2382.74 224L2382.59 248.188C2380.44 247.719 2378.38 247.438 2376.41 247.344C2374.53 247.156 2372.38 247.062 2369.94 247.062C2363.94 247.062 2358.64 248 2354.05 249.875C2349.45 251.75 2345.56 254.375 2342.38 257.75C2339.19 261.125 2336.66 265.156 2334.78 269.844C2333 274.438 2331.83 279.5 2331.27 285.031L2323.95 289.25C2323.95 280.062 2324.84 271.438 2326.63 263.375C2328.5 255.312 2331.36 248.188 2335.2 242C2339.05 235.719 2343.92 230.844 2349.83 227.375C2355.83 223.812 2362.95 222.031 2371.2 222.031C2373.08 222.031 2375.24 222.266 2377.67 222.734C2380.11 223.109 2381.8 223.531 2382.74 224ZM2435.05 224.844V377H2408.89V224.844H2435.05ZM2406.92 184.484C2406.92 180.266 2408.19 176.703 2410.72 173.797C2413.34 170.891 2417.19 169.438 2422.25 169.438C2427.22 169.438 2431.02 170.891 2433.64 173.797C2436.36 176.703 2437.72 180.266 2437.72 184.484C2437.72 188.516 2436.36 191.984 2433.64 194.891C2431.02 197.703 2427.22 199.109 2422.25 199.109C2417.19 199.109 2413.34 197.703 2410.72 194.891C2408.19 191.984 2406.92 188.516 2406.92 184.484ZM2537.7 358.438C2543.89 358.438 2549.61 357.172 2554.86 354.641C2560.11 352.109 2564.42 348.641 2567.8 344.234C2571.17 339.734 2573.09 334.625 2573.56 328.906H2598.31C2597.84 337.906 2594.8 346.297 2589.17 354.078C2583.64 361.766 2576.38 368 2567.38 372.781C2558.38 377.469 2548.49 379.812 2537.7 379.812C2526.27 379.812 2516.28 377.797 2507.75 373.766C2499.31 369.734 2492.28 364.203 2486.66 357.172C2481.13 350.141 2476.95 342.078 2474.14 332.984C2471.42 323.797 2470.06 314.094 2470.06 303.875V297.969C2470.06 287.75 2471.42 278.094 2474.14 269C2476.95 259.812 2481.13 251.703 2486.66 244.672C2492.28 237.641 2499.31 232.109 2507.75 228.078C2516.28 224.047 2526.27 222.031 2537.7 222.031C2549.61 222.031 2560.02 224.469 2568.92 229.344C2577.83 234.125 2584.81 240.688 2589.88 249.031C2595.03 257.281 2597.84 266.656 2598.31 277.156H2573.56C2573.09 270.875 2571.31 265.203 2568.22 260.141C2565.22 255.078 2561.09 251.047 2555.84 248.047C2550.69 244.953 2544.64 243.406 2537.7 243.406C2529.74 243.406 2523.03 245 2517.59 248.188C2512.25 251.281 2507.99 255.5 2504.8 260.844C2501.7 266.094 2499.45 271.953 2498.05 278.422C2496.74 284.797 2496.08 291.312 2496.08 297.969V303.875C2496.08 310.531 2496.74 317.094 2498.05 323.562C2499.36 330.031 2501.56 335.891 2504.66 341.141C2507.84 346.391 2512.11 350.609 2517.45 353.797C2522.89 356.891 2529.64 358.438 2537.7 358.438ZM2717.28 350.984V272.656C2717.28 266.656 2716.06 261.453 2713.63 257.047C2711.28 252.547 2707.72 249.078 2702.94 246.641C2698.16 244.203 2692.25 242.984 2685.22 242.984C2678.66 242.984 2672.89 244.109 2667.92 246.359C2663.05 248.609 2659.2 251.562 2656.39 255.219C2653.67 258.875 2652.31 262.812 2652.31 267.031H2626.3C2626.3 261.594 2627.7 256.203 2630.52 250.859C2633.33 245.516 2637.36 240.688 2642.61 236.375C2647.95 231.969 2654.33 228.5 2661.74 225.969C2669.24 223.344 2677.58 222.031 2686.77 222.031C2697.83 222.031 2707.58 223.906 2716.02 227.656C2724.55 231.406 2731.2 237.078 2735.99 244.672C2740.86 252.172 2743.3 261.594 2743.3 272.938V343.812C2743.3 348.875 2743.72 354.266 2744.56 359.984C2745.5 365.703 2746.86 370.625 2748.64 374.75V377H2721.5C2720.19 374 2719.16 370.016 2718.41 365.047C2717.66 359.984 2717.28 355.297 2717.28 350.984ZM2721.78 284.75L2722.06 303.031H2695.77C2688.36 303.031 2681.75 303.641 2675.94 304.859C2670.13 305.984 2665.25 307.719 2661.31 310.062C2657.38 312.406 2654.38 315.359 2652.31 318.922C2650.25 322.391 2649.22 326.469 2649.22 331.156C2649.22 335.938 2650.3 340.297 2652.45 344.234C2654.61 348.172 2657.84 351.312 2662.16 353.656C2666.56 355.906 2671.95 357.031 2678.33 357.031C2686.3 357.031 2693.33 355.344 2699.42 351.969C2705.52 348.594 2710.34 344.469 2713.91 339.594C2717.56 334.719 2719.53 329.984 2719.81 325.391L2730.92 337.906C2730.27 341.844 2728.49 346.203 2725.58 350.984C2722.67 355.766 2718.78 360.359 2713.91 364.766C2709.13 369.078 2703.41 372.688 2696.75 375.594C2690.19 378.406 2682.78 379.812 2674.53 379.812C2664.22 379.812 2655.17 377.797 2647.39 373.766C2639.7 369.734 2633.7 364.344 2629.39 357.594C2625.17 350.75 2623.06 343.109 2623.06 334.672C2623.06 326.516 2624.66 319.344 2627.84 313.156C2631.03 306.875 2635.63 301.672 2641.63 297.547C2647.63 293.328 2654.84 290.141 2663.28 287.984C2671.72 285.828 2681.14 284.75 2691.55 284.75H2721.78Z" fill="#444141"/>
<path d="M607.595 412.25V526H592.751V412.25H607.595ZM644.157 412.25V424.594H556.267V412.25H644.157ZM699.782 511.547V468.031C699.782 464.698 699.105 461.807 697.751 459.359C696.449 456.859 694.47 454.932 691.814 453.578C689.157 452.224 685.876 451.547 681.97 451.547C678.324 451.547 675.121 452.172 672.361 453.422C669.652 454.672 667.517 456.312 665.954 458.344C664.444 460.375 663.689 462.562 663.689 464.906H649.236C649.236 461.885 650.017 458.891 651.579 455.922C653.142 452.953 655.381 450.271 658.298 447.875C661.267 445.427 664.809 443.5 668.923 442.094C673.09 440.635 677.725 439.906 682.829 439.906C688.975 439.906 694.392 440.948 699.079 443.031C703.819 445.115 707.517 448.266 710.173 452.484C712.881 456.651 714.236 461.885 714.236 468.188V507.562C714.236 510.375 714.47 513.37 714.939 516.547C715.46 519.724 716.215 522.458 717.204 524.75V526H702.126C701.397 524.333 700.824 522.12 700.407 519.359C699.991 516.547 699.782 513.943 699.782 511.547ZM702.282 474.75L702.439 484.906H687.829C683.715 484.906 680.043 485.245 676.814 485.922C673.585 486.547 670.876 487.51 668.689 488.812C666.501 490.115 664.835 491.755 663.689 493.734C662.543 495.661 661.97 497.927 661.97 500.531C661.97 503.188 662.569 505.609 663.767 507.797C664.965 509.984 666.762 511.729 669.157 513.031C671.605 514.281 674.6 514.906 678.142 514.906C682.569 514.906 686.475 513.969 689.861 512.094C693.246 510.219 695.928 507.927 697.907 505.219C699.939 502.51 701.032 499.88 701.189 497.328L707.361 504.281C706.996 506.469 706.006 508.891 704.392 511.547C702.777 514.203 700.616 516.755 697.907 519.203C695.251 521.599 692.074 523.604 688.376 525.219C684.73 526.781 680.616 527.562 676.032 527.562C670.303 527.562 665.277 526.443 660.954 524.203C656.684 521.964 653.35 518.969 650.954 515.219C648.611 511.417 647.439 507.172 647.439 502.484C647.439 497.953 648.324 493.969 650.095 490.531C651.866 487.042 654.418 484.151 657.751 481.859C661.085 479.516 665.095 477.745 669.782 476.547C674.47 475.349 679.704 474.75 685.486 474.75H702.282ZM752.673 406V526H738.142V406H752.673ZM810.954 527.562C805.069 527.562 799.73 526.573 794.939 524.594C790.199 522.562 786.111 519.724 782.673 516.078C779.288 512.432 776.684 508.109 774.861 503.109C773.038 498.109 772.126 492.641 772.126 486.703V483.422C772.126 476.547 773.142 470.427 775.173 465.062C777.204 459.646 779.965 455.062 783.454 451.312C786.944 447.562 790.902 444.724 795.329 442.797C799.756 440.87 804.34 439.906 809.079 439.906C815.121 439.906 820.329 440.948 824.704 443.031C829.131 445.115 832.751 448.031 835.564 451.781C838.376 455.479 840.46 459.854 841.814 464.906C843.168 469.906 843.845 475.375 843.845 481.312V487.797H780.72V476H829.392V474.906C829.184 471.156 828.402 467.51 827.048 463.969C825.746 460.427 823.663 457.51 820.798 455.219C817.934 452.927 814.027 451.781 809.079 451.781C805.798 451.781 802.777 452.484 800.017 453.891C797.256 455.245 794.887 457.276 792.907 459.984C790.928 462.693 789.392 466 788.298 469.906C787.204 473.812 786.657 478.318 786.657 483.422V486.703C786.657 490.714 787.204 494.49 788.298 498.031C789.444 501.521 791.085 504.594 793.22 507.25C795.407 509.906 798.038 511.99 801.111 513.5C804.236 515.01 807.777 515.766 811.736 515.766C816.84 515.766 821.163 514.724 824.704 512.641C828.246 510.557 831.345 507.771 834.001 504.281L842.751 511.234C840.928 513.995 838.611 516.625 835.798 519.125C832.986 521.625 829.522 523.656 825.407 525.219C821.345 526.781 816.527 527.562 810.954 527.562ZM875.173 459.516V526H860.72V441.469H874.392L875.173 459.516ZM871.736 480.531L865.72 480.297C865.772 474.516 866.631 469.177 868.298 464.281C869.965 459.333 872.309 455.036 875.329 451.391C878.35 447.745 881.944 444.932 886.111 442.953C890.329 440.922 894.991 439.906 900.095 439.906C904.262 439.906 908.012 440.479 911.345 441.625C914.678 442.719 917.517 444.49 919.861 446.938C922.256 449.385 924.079 452.562 925.329 456.469C926.579 460.323 927.204 465.036 927.204 470.609V526H912.673V470.453C912.673 466.026 912.022 462.484 910.72 459.828C909.418 457.12 907.517 455.167 905.017 453.969C902.517 452.719 899.444 452.094 895.798 452.094C892.204 452.094 888.923 452.849 885.954 454.359C883.038 455.87 880.512 457.953 878.376 460.609C876.293 463.266 874.652 466.312 873.454 469.75C872.309 473.135 871.736 476.729 871.736 480.531ZM984.548 441.469V452.562H938.845V441.469H984.548ZM954.314 420.922H968.767V505.062C968.767 507.927 969.21 510.089 970.095 511.547C970.98 513.005 972.126 513.969 973.532 514.438C974.939 514.906 976.449 515.141 978.064 515.141C979.262 515.141 980.512 515.036 981.814 514.828C983.168 514.568 984.184 514.359 984.861 514.203L984.939 526C983.793 526.365 982.282 526.703 980.407 527.016C978.585 527.38 976.371 527.562 973.767 527.562C970.225 527.562 966.97 526.859 964.001 525.453C961.032 524.047 958.663 521.703 956.892 518.422C955.173 515.089 954.314 510.609 954.314 504.984V420.922Z" fill="#FD510C"/>
<path d="M1055.56 412.25V547.094H1043.92V412.25H1055.56ZM2070.88 412.25V547.094H2059.24V412.25H2070.88ZM2206.11 489.828H2221.11C2220.33 497.016 2218.27 503.448 2214.94 509.125C2211.61 514.802 2206.89 519.307 2200.8 522.641C2194.7 525.922 2187.1 527.562 2177.99 527.562C2171.32 527.562 2165.25 526.312 2159.78 523.812C2154.37 521.312 2149.7 517.771 2145.8 513.188C2141.89 508.552 2138.87 503.005 2136.74 496.547C2134.65 490.036 2133.61 482.797 2133.61 474.828V463.5C2133.61 455.531 2134.65 448.318 2136.74 441.859C2138.87 435.349 2141.92 429.776 2145.88 425.141C2149.89 420.505 2154.7 416.938 2160.33 414.438C2165.95 411.938 2172.28 410.688 2179.31 410.688C2187.91 410.688 2195.17 412.302 2201.11 415.531C2207.05 418.76 2211.66 423.24 2214.94 428.969C2218.27 434.646 2220.33 441.234 2221.11 448.734H2206.11C2205.38 443.422 2204.03 438.865 2202.05 435.062C2200.07 431.208 2197.26 428.24 2193.61 426.156C2189.96 424.073 2185.2 423.031 2179.31 423.031C2174.26 423.031 2169.81 423.995 2165.95 425.922C2162.15 427.849 2158.95 430.583 2156.34 434.125C2153.79 437.667 2151.87 441.911 2150.56 446.859C2149.26 451.807 2148.61 457.302 2148.61 463.344V474.828C2148.61 480.401 2149.18 485.635 2150.33 490.531C2151.53 495.427 2153.32 499.724 2155.72 503.422C2158.12 507.12 2161.16 510.036 2164.86 512.172C2168.56 514.255 2172.93 515.297 2177.99 515.297C2184.39 515.297 2189.5 514.281 2193.3 512.25C2197.1 510.219 2199.96 507.302 2201.89 503.5C2203.87 499.698 2205.28 495.141 2206.11 489.828ZM2291.19 506.469V441.469H2305.72V526H2291.89L2291.19 506.469ZM2293.92 488.656L2299.94 488.5C2299.94 494.125 2299.34 499.333 2298.14 504.125C2297 508.865 2295.12 512.979 2292.52 516.469C2289.91 519.958 2286.5 522.693 2282.28 524.672C2278.06 526.599 2272.93 527.562 2266.89 527.562C2262.78 527.562 2259 526.964 2255.56 525.766C2252.18 524.568 2249.26 522.719 2246.81 520.219C2244.37 517.719 2242.46 514.464 2241.11 510.453C2239.81 506.443 2239.16 501.625 2239.16 496V441.469H2253.61V496.156C2253.61 499.958 2254.03 503.109 2254.86 505.609C2255.75 508.057 2256.92 510.01 2258.38 511.469C2259.89 512.875 2261.55 513.865 2263.38 514.438C2265.25 515.01 2267.18 515.297 2269.16 515.297C2275.3 515.297 2280.17 514.125 2283.77 511.781C2287.36 509.385 2289.94 506.182 2291.5 502.172C2293.12 498.109 2293.92 493.604 2293.92 488.656ZM2343.45 406V526H2328.92V406H2343.45ZM2402.05 441.469V452.562H2356.34V441.469H2402.05ZM2371.81 420.922H2386.27V505.062C2386.27 507.927 2386.71 510.089 2387.59 511.547C2388.48 513.005 2389.63 513.969 2391.03 514.438C2392.44 514.906 2393.95 515.141 2395.56 515.141C2396.76 515.141 2398.01 515.036 2399.31 514.828C2400.67 514.568 2401.68 514.359 2402.36 514.203L2402.44 526C2401.29 526.365 2399.78 526.703 2397.91 527.016C2396.08 527.38 2393.87 527.562 2391.27 527.562C2387.73 527.562 2384.47 526.859 2381.5 525.453C2378.53 524.047 2376.16 521.703 2374.39 518.422C2372.67 515.089 2371.81 510.609 2371.81 504.984V420.922ZM2470.72 506.469V441.469H2485.25V526H2471.42L2470.72 506.469ZM2473.45 488.656L2479.47 488.5C2479.47 494.125 2478.87 499.333 2477.67 504.125C2476.53 508.865 2474.65 512.979 2472.05 516.469C2469.44 519.958 2466.03 522.693 2461.81 524.672C2457.59 526.599 2452.46 527.562 2446.42 527.562C2442.31 527.562 2438.53 526.964 2435.09 525.766C2431.71 524.568 2428.79 522.719 2426.34 520.219C2423.9 517.719 2422 514.464 2420.64 510.453C2419.34 506.443 2418.69 501.625 2418.69 496V441.469H2433.14V496.156C2433.14 499.958 2433.56 503.109 2434.39 505.609C2435.28 508.057 2436.45 510.01 2437.91 511.469C2439.42 512.875 2441.08 513.865 2442.91 514.438C2444.78 515.01 2446.71 515.297 2448.69 515.297C2454.83 515.297 2459.7 514.125 2463.3 511.781C2466.89 509.385 2469.47 506.182 2471.03 502.172C2472.65 498.109 2473.45 493.604 2473.45 488.656ZM2521.74 454.75V526H2507.28V441.469H2521.34L2521.74 454.75ZM2548.14 441L2548.06 454.438C2546.87 454.177 2545.72 454.021 2544.63 453.969C2543.58 453.865 2542.39 453.812 2541.03 453.812C2537.7 453.812 2534.76 454.333 2532.2 455.375C2529.65 456.417 2527.49 457.875 2525.72 459.75C2523.95 461.625 2522.54 463.865 2521.5 466.469C2520.51 469.021 2519.86 471.833 2519.55 474.906L2515.49 477.25C2515.49 472.146 2515.98 467.354 2516.97 462.875C2518.01 458.396 2519.6 454.438 2521.74 451C2523.87 447.51 2526.58 444.802 2529.86 442.875C2533.19 440.896 2537.15 439.906 2541.74 439.906C2542.78 439.906 2543.98 440.036 2545.33 440.297C2546.68 440.505 2547.62 440.74 2548.14 441ZM2595.02 527.562C2589.13 527.562 2583.79 526.573 2579 524.594C2574.26 522.562 2570.17 519.724 2566.74 516.078C2563.35 512.432 2560.75 508.109 2558.92 503.109C2557.1 498.109 2556.19 492.641 2556.19 486.703V483.422C2556.19 476.547 2557.2 470.427 2559.24 465.062C2561.27 459.646 2564.03 455.062 2567.52 451.312C2571.01 447.562 2574.96 444.724 2579.39 442.797C2583.82 440.87 2588.4 439.906 2593.14 439.906C2599.18 439.906 2604.39 440.948 2608.77 443.031C2613.19 445.115 2616.81 448.031 2619.63 451.781C2622.44 455.479 2624.52 459.854 2625.88 464.906C2627.23 469.906 2627.91 475.375 2627.91 481.312V487.797H2564.78V476H2613.45V474.906C2613.25 471.156 2612.46 467.51 2611.11 463.969C2609.81 460.427 2607.73 457.51 2604.86 455.219C2602 452.927 2598.09 451.781 2593.14 451.781C2589.86 451.781 2586.84 452.484 2584.08 453.891C2581.32 455.245 2578.95 457.276 2576.97 459.984C2574.99 462.693 2573.45 466 2572.36 469.906C2571.27 473.812 2570.72 478.318 2570.72 483.422V486.703C2570.72 490.714 2571.27 494.49 2572.36 498.031C2573.51 501.521 2575.15 504.594 2577.28 507.25C2579.47 509.906 2582.1 511.99 2585.17 513.5C2588.3 515.01 2591.84 515.766 2595.8 515.766C2600.9 515.766 2605.23 514.724 2608.77 512.641C2612.31 510.557 2615.41 507.771 2618.06 504.281L2626.81 511.234C2624.99 513.995 2622.67 516.625 2619.86 519.125C2617.05 521.625 2613.58 523.656 2609.47 525.219C2605.41 526.781 2600.59 527.562 2595.02 527.562Z" fill="#444141"/>
<path d="M1194.39 513.734V526H1134.16V513.734H1194.39ZM1137.2 412.25V526H1122.13V412.25H1137.2ZM1186.42 461.156V473.422H1134.16V461.156H1186.42ZM1193.61 412.25V424.594H1134.16V412.25H1193.61ZM1225.33 459.516V526H1210.88V441.469H1224.55L1225.33 459.516ZM1221.89 480.531L1215.88 480.297C1215.93 474.516 1216.79 469.177 1218.45 464.281C1220.12 459.333 1222.46 455.036 1225.49 451.391C1228.51 447.745 1232.1 444.932 1236.27 442.953C1240.49 440.922 1245.15 439.906 1250.25 439.906C1254.42 439.906 1258.17 440.479 1261.5 441.625C1264.83 442.719 1267.67 444.49 1270.02 446.938C1272.41 449.385 1274.24 452.562 1275.49 456.469C1276.74 460.323 1277.36 465.036 1277.36 470.609V526H1262.83V470.453C1262.83 466.026 1262.18 462.484 1260.88 459.828C1259.57 457.12 1257.67 455.167 1255.17 453.969C1252.67 452.719 1249.6 452.094 1245.95 452.094C1242.36 452.094 1239.08 452.849 1236.11 454.359C1233.19 455.87 1230.67 457.953 1228.53 460.609C1226.45 463.266 1224.81 466.312 1223.61 469.75C1222.46 473.135 1221.89 476.729 1221.89 480.531ZM1354.08 441.469H1367.2V524.203C1367.2 531.651 1365.69 538.005 1362.67 543.266C1359.65 548.526 1355.43 552.51 1350.02 555.219C1344.65 557.979 1338.45 559.359 1331.42 559.359C1328.51 559.359 1325.07 558.891 1321.11 557.953C1317.2 557.068 1313.35 555.531 1309.55 553.344C1305.8 551.208 1302.65 548.318 1300.09 544.672L1307.67 536.078C1311.21 540.349 1314.91 543.318 1318.77 544.984C1322.67 546.651 1326.53 547.484 1330.33 547.484C1334.91 547.484 1338.87 546.625 1342.2 544.906C1345.54 543.188 1348.12 540.635 1349.94 537.25C1351.81 533.917 1352.75 529.802 1352.75 524.906V460.062L1354.08 441.469ZM1295.88 484.672V483.031C1295.88 476.573 1296.63 470.714 1298.14 465.453C1299.7 460.141 1301.92 455.583 1304.78 451.781C1307.7 447.979 1311.21 445.062 1315.33 443.031C1319.44 440.948 1324.08 439.906 1329.24 439.906C1334.55 439.906 1339.18 440.844 1343.14 442.719C1347.15 444.542 1350.54 447.224 1353.3 450.766C1356.11 454.255 1358.32 458.474 1359.94 463.422C1361.55 468.37 1362.67 473.969 1363.3 480.219V487.406C1362.73 493.604 1361.61 499.177 1359.94 504.125C1358.32 509.073 1356.11 513.292 1353.3 516.781C1350.54 520.271 1347.15 522.953 1343.14 524.828C1339.13 526.651 1334.44 527.562 1329.08 527.562C1324.03 527.562 1319.44 526.495 1315.33 524.359C1311.27 522.224 1307.78 519.229 1304.86 515.375C1301.94 511.521 1299.7 506.99 1298.14 501.781C1296.63 496.521 1295.88 490.818 1295.88 484.672ZM1310.33 483.031V484.672C1310.33 488.891 1310.75 492.849 1311.58 496.547C1312.46 500.245 1313.79 503.5 1315.56 506.312C1317.39 509.125 1319.7 511.339 1322.52 512.953C1325.33 514.516 1328.69 515.297 1332.59 515.297C1337.39 515.297 1341.34 514.281 1344.47 512.25C1347.59 510.219 1350.07 507.536 1351.89 504.203C1353.77 500.87 1355.23 497.25 1356.27 493.344V474.516C1355.69 471.651 1354.81 468.891 1353.61 466.234C1352.46 463.526 1350.95 461.13 1349.08 459.047C1347.26 456.911 1344.99 455.219 1342.28 453.969C1339.57 452.719 1336.4 452.094 1332.75 452.094C1328.79 452.094 1325.38 452.927 1322.52 454.594C1319.7 456.208 1317.39 458.448 1315.56 461.312C1313.79 464.125 1312.46 467.406 1311.58 471.156C1310.75 474.854 1310.33 478.812 1310.33 483.031ZM1439 511.547V468.031C1439 464.698 1438.32 461.807 1436.97 459.359C1435.67 456.859 1433.69 454.932 1431.03 453.578C1428.38 452.224 1425.09 451.547 1421.19 451.547C1417.54 451.547 1414.34 452.172 1411.58 453.422C1408.87 454.672 1406.74 456.312 1405.17 458.344C1403.66 460.375 1402.91 462.562 1402.91 464.906H1388.45C1388.45 461.885 1389.24 458.891 1390.8 455.922C1392.36 452.953 1394.6 450.271 1397.52 447.875C1400.49 445.427 1404.03 443.5 1408.14 442.094C1412.31 440.635 1416.94 439.906 1422.05 439.906C1428.19 439.906 1433.61 440.948 1438.3 443.031C1443.04 445.115 1446.74 448.266 1449.39 452.484C1452.1 456.651 1453.45 461.885 1453.45 468.188V507.562C1453.45 510.375 1453.69 513.37 1454.16 516.547C1454.68 519.724 1455.43 522.458 1456.42 524.75V526H1441.34C1440.62 524.333 1440.04 522.12 1439.63 519.359C1439.21 516.547 1439 513.943 1439 511.547ZM1441.5 474.75L1441.66 484.906H1427.05C1422.93 484.906 1419.26 485.245 1416.03 485.922C1412.8 486.547 1410.09 487.51 1407.91 488.812C1405.72 490.115 1404.05 491.755 1402.91 493.734C1401.76 495.661 1401.19 497.927 1401.19 500.531C1401.19 503.188 1401.79 505.609 1402.99 507.797C1404.18 509.984 1405.98 511.729 1408.38 513.031C1410.82 514.281 1413.82 514.906 1417.36 514.906C1421.79 514.906 1425.69 513.969 1429.08 512.094C1432.46 510.219 1435.15 507.927 1437.13 505.219C1439.16 502.51 1440.25 499.88 1440.41 497.328L1446.58 504.281C1446.21 506.469 1445.23 508.891 1443.61 511.547C1442 514.203 1439.83 516.755 1437.13 519.203C1434.47 521.599 1431.29 523.604 1427.59 525.219C1423.95 526.781 1419.83 527.562 1415.25 527.562C1409.52 527.562 1404.5 526.443 1400.17 524.203C1395.9 521.964 1392.57 518.969 1390.17 515.219C1387.83 511.417 1386.66 507.172 1386.66 502.484C1386.66 497.953 1387.54 493.969 1389.31 490.531C1391.08 487.042 1393.64 484.151 1396.97 481.859C1400.3 479.516 1404.31 477.745 1409 476.547C1413.69 475.349 1418.92 474.75 1424.7 474.75H1441.5ZM1530.95 441.469H1544.08V524.203C1544.08 531.651 1542.57 538.005 1539.55 543.266C1536.53 548.526 1532.31 552.51 1526.89 555.219C1521.53 557.979 1515.33 559.359 1508.3 559.359C1505.38 559.359 1501.94 558.891 1497.99 557.953C1494.08 557.068 1490.23 555.531 1486.42 553.344C1482.67 551.208 1479.52 548.318 1476.97 544.672L1484.55 536.078C1488.09 540.349 1491.79 543.318 1495.64 544.984C1499.55 546.651 1503.4 547.484 1507.2 547.484C1511.79 547.484 1515.75 546.625 1519.08 544.906C1522.41 543.188 1524.99 540.635 1526.81 537.25C1528.69 533.917 1529.63 529.802 1529.63 524.906V460.062L1530.95 441.469ZM1472.75 484.672V483.031C1472.75 476.573 1473.51 470.714 1475.02 465.453C1476.58 460.141 1478.79 455.583 1481.66 451.781C1484.57 447.979 1488.09 445.062 1492.2 443.031C1496.32 440.948 1500.95 439.906 1506.11 439.906C1511.42 439.906 1516.06 440.844 1520.02 442.719C1524.03 444.542 1527.41 447.224 1530.17 450.766C1532.99 454.255 1535.2 458.474 1536.81 463.422C1538.43 468.37 1539.55 473.969 1540.17 480.219V487.406C1539.6 493.604 1538.48 499.177 1536.81 504.125C1535.2 509.073 1532.99 513.292 1530.17 516.781C1527.41 520.271 1524.03 522.953 1520.02 524.828C1516.01 526.651 1511.32 527.562 1505.95 527.562C1500.9 527.562 1496.32 526.495 1492.2 524.359C1488.14 522.224 1484.65 519.229 1481.74 515.375C1478.82 511.521 1476.58 506.99 1475.02 501.781C1473.51 496.521 1472.75 490.818 1472.75 484.672ZM1487.2 483.031V484.672C1487.2 488.891 1487.62 492.849 1488.45 496.547C1489.34 500.245 1490.67 503.5 1492.44 506.312C1494.26 509.125 1496.58 511.339 1499.39 512.953C1502.2 514.516 1505.56 515.297 1509.47 515.297C1514.26 515.297 1518.22 514.281 1521.34 512.25C1524.47 510.219 1526.94 507.536 1528.77 504.203C1530.64 500.87 1532.1 497.25 1533.14 493.344V474.516C1532.57 471.651 1531.68 468.891 1530.49 466.234C1529.34 463.526 1527.83 461.13 1525.95 459.047C1524.13 456.911 1521.87 455.219 1519.16 453.969C1516.45 452.719 1513.27 452.094 1509.63 452.094C1505.67 452.094 1502.26 452.927 1499.39 454.594C1496.58 456.208 1494.26 458.448 1492.44 461.312C1490.67 464.125 1489.34 467.406 1488.45 471.156C1487.62 474.854 1487.2 478.812 1487.2 483.031ZM1601.11 527.562C1595.23 527.562 1589.89 526.573 1585.09 524.594C1580.36 522.562 1576.27 519.724 1572.83 516.078C1569.44 512.432 1566.84 508.109 1565.02 503.109C1563.19 498.109 1562.28 492.641 1562.28 486.703V483.422C1562.28 476.547 1563.3 470.427 1565.33 465.062C1567.36 459.646 1570.12 455.062 1573.61 451.312C1577.1 447.562 1581.06 444.724 1585.49 442.797C1589.91 440.87 1594.5 439.906 1599.24 439.906C1605.28 439.906 1610.49 440.948 1614.86 443.031C1619.29 445.115 1622.91 448.031 1625.72 451.781C1628.53 455.479 1630.62 459.854 1631.97 464.906C1633.32 469.906 1634 475.375 1634 481.312V487.797H1570.88V476H1619.55V474.906C1619.34 471.156 1618.56 467.51 1617.2 463.969C1615.9 460.427 1613.82 457.51 1610.95 455.219C1608.09 452.927 1604.18 451.781 1599.24 451.781C1595.95 451.781 1592.93 452.484 1590.17 453.891C1587.41 455.245 1585.04 457.276 1583.06 459.984C1581.08 462.693 1579.55 466 1578.45 469.906C1577.36 473.812 1576.81 478.318 1576.81 483.422V486.703C1576.81 490.714 1577.36 494.49 1578.45 498.031C1579.6 501.521 1581.24 504.594 1583.38 507.25C1585.56 509.906 1588.19 511.99 1591.27 513.5C1594.39 515.01 1597.93 515.766 1601.89 515.766C1607 515.766 1611.32 514.724 1614.86 512.641C1618.4 510.557 1621.5 507.771 1624.16 504.281L1632.91 511.234C1631.08 513.995 1628.77 516.625 1625.95 519.125C1623.14 521.625 1619.68 523.656 1615.56 525.219C1611.5 526.781 1606.68 527.562 1601.11 527.562ZM1665.25 458.266V526H1650.72V441.469H1664.47L1665.25 458.266ZM1662.28 480.531L1655.56 480.297C1655.62 474.516 1656.37 469.177 1657.83 464.281C1659.29 459.333 1661.45 455.036 1664.31 451.391C1667.18 447.745 1670.75 444.932 1675.02 442.953C1679.29 440.922 1684.24 439.906 1689.86 439.906C1693.82 439.906 1697.46 440.479 1700.8 441.625C1704.13 442.719 1707.02 444.464 1709.47 446.859C1711.92 449.255 1713.82 452.328 1715.17 456.078C1716.53 459.828 1717.2 464.359 1717.2 469.672V526H1702.75V470.375C1702.75 465.948 1702 462.406 1700.49 459.75C1699.03 457.094 1696.94 455.167 1694.24 453.969C1691.53 452.719 1688.35 452.094 1684.7 452.094C1680.43 452.094 1676.87 452.849 1674 454.359C1671.14 455.87 1668.84 457.953 1667.13 460.609C1665.41 463.266 1664.16 466.312 1663.38 469.75C1662.65 473.135 1662.28 476.729 1662.28 480.531ZM1717.05 472.562L1707.36 475.531C1707.41 470.896 1708.17 466.443 1709.63 462.172C1711.14 457.901 1713.3 454.099 1716.11 450.766C1718.98 447.432 1722.49 444.802 1726.66 442.875C1730.82 440.896 1735.59 439.906 1740.95 439.906C1745.49 439.906 1749.5 440.505 1752.99 441.703C1756.53 442.901 1759.5 444.75 1761.89 447.25C1764.34 449.698 1766.19 452.849 1767.44 456.703C1768.69 460.557 1769.31 465.141 1769.31 470.453V526H1754.78V470.297C1754.78 465.557 1754.03 461.885 1752.52 459.281C1751.06 456.625 1748.98 454.776 1746.27 453.734C1743.61 452.641 1740.43 452.094 1736.74 452.094C1733.56 452.094 1730.75 452.641 1728.3 453.734C1725.85 454.828 1723.79 456.339 1722.13 458.266C1720.46 460.141 1719.18 462.302 1718.3 464.75C1717.46 467.198 1717.05 469.802 1717.05 472.562ZM1826.27 527.562C1820.38 527.562 1815.04 526.573 1810.25 524.594C1805.51 522.562 1801.42 519.724 1797.99 516.078C1794.6 512.432 1792 508.109 1790.17 503.109C1788.35 498.109 1787.44 492.641 1787.44 486.703V483.422C1787.44 476.547 1788.45 470.427 1790.49 465.062C1792.52 459.646 1795.28 455.062 1798.77 451.312C1802.26 447.562 1806.21 444.724 1810.64 442.797C1815.07 440.87 1819.65 439.906 1824.39 439.906C1830.43 439.906 1835.64 440.948 1840.02 443.031C1844.44 445.115 1848.06 448.031 1850.88 451.781C1853.69 455.479 1855.77 459.854 1857.13 464.906C1858.48 469.906 1859.16 475.375 1859.16 481.312V487.797H1796.03V476H1844.7V474.906C1844.5 471.156 1843.71 467.51 1842.36 463.969C1841.06 460.427 1838.98 457.51 1836.11 455.219C1833.25 452.927 1829.34 451.781 1824.39 451.781C1821.11 451.781 1818.09 452.484 1815.33 453.891C1812.57 455.245 1810.2 457.276 1808.22 459.984C1806.24 462.693 1804.7 466 1803.61 469.906C1802.52 473.812 1801.97 478.318 1801.97 483.422V486.703C1801.97 490.714 1802.52 494.49 1803.61 498.031C1804.76 501.521 1806.4 504.594 1808.53 507.25C1810.72 509.906 1813.35 511.99 1816.42 513.5C1819.55 515.01 1823.09 515.766 1827.05 515.766C1832.15 515.766 1836.48 514.724 1840.02 512.641C1843.56 510.557 1846.66 507.771 1849.31 504.281L1858.06 511.234C1856.24 513.995 1853.92 516.625 1851.11 519.125C1848.3 521.625 1844.83 523.656 1840.72 525.219C1836.66 526.781 1831.84 527.562 1826.27 527.562ZM1890.49 459.516V526H1876.03V441.469H1889.7L1890.49 459.516ZM1887.05 480.531L1881.03 480.297C1881.08 474.516 1881.94 469.177 1883.61 464.281C1885.28 459.333 1887.62 455.036 1890.64 451.391C1893.66 447.745 1897.26 444.932 1901.42 442.953C1905.64 440.922 1910.3 439.906 1915.41 439.906C1919.57 439.906 1923.32 440.479 1926.66 441.625C1929.99 442.719 1932.83 444.49 1935.17 446.938C1937.57 449.385 1939.39 452.562 1940.64 456.469C1941.89 460.323 1942.52 465.036 1942.52 470.609V526H1927.99V470.453C1927.99 466.026 1927.33 462.484 1926.03 459.828C1924.73 457.12 1922.83 455.167 1920.33 453.969C1917.83 452.719 1914.76 452.094 1911.11 452.094C1907.52 452.094 1904.24 452.849 1901.27 454.359C1898.35 455.87 1895.82 457.953 1893.69 460.609C1891.61 463.266 1889.96 466.312 1888.77 469.75C1887.62 473.135 1887.05 476.729 1887.05 480.531ZM1999.86 441.469V452.562H1954.16V441.469H1999.86ZM1969.63 420.922H1984.08V505.062C1984.08 507.927 1984.52 510.089 1985.41 511.547C1986.29 513.005 1987.44 513.969 1988.84 514.438C1990.25 514.906 1991.76 515.141 1993.38 515.141C1994.57 515.141 1995.82 515.036 1997.13 514.828C1998.48 514.568 1999.5 514.359 2000.17 514.203L2000.25 526C1999.11 526.365 1997.59 526.703 1995.72 527.016C1993.9 527.38 1991.68 527.562 1989.08 527.562C1985.54 527.562 1982.28 526.859 1979.31 525.453C1976.34 524.047 1973.98 521.703 1972.2 518.422C1970.49 515.089 1969.63 510.609 1969.63 504.984V420.922Z" fill="#FDB314"/>
</g>
<defs>
<clipPath id="clip0_516_3">
<rect width="3077" height="717" fill="white"/>
</clipPath>
</defs>
</svg>
